<?xml version="1.0" encoding="UTF-8"?>
<svg width="32" height="32" viewBox="0 0 32 32" fill="none" xmlns="http://www.w3.org/2000/svg">
  <rect width="32" height="32" rx="8" fill="#000"/>
  <path d="M16 6C11 6 7 10 7 15C7 20 11 24 16 24C21 24 25 20 25 15C25 10 21 6 16 6ZM16 22C12.1 22 9 18.9 9 15C9 11.1 12.1 8 16 8C19.9 8 23 11.1 23 15C23 18.9 19.9 22 16 22Z" fill="#FFF"/>
  <path d="M16 10C13.2 10 11 12.2 11 15C11 17.8 13.2 20 16 20C18.8 20 21 17.8 21 15C21 12.2 18.8 10 16 10ZM16 18C14.3 18 13 16.7 13 15C13 13.3 14.3 12 16 12C17.7 12 19 13.3 19 15C19 16.7 17.7 18 16 18Z" fill="#FFF"/>
  <circle cx="16" cy="15" r="2" fill="#FFF"/>
</svg>